<svg width="17" height="18" viewBox="0 0 17 18" fill="none" xmlns="http://www.w3.org/2000/svg">
<path d="M6 3L7.83282 7.16718L12 9L7.83282 10.8328L6 15L4.16718 10.8328L0 9L4.16718 7.16718L6 3Z" fill="#F5772E"/>
<path d="M6 3L7.83282 7.16718L12 9L7.83282 10.8328L6 15L4.16718 10.8328L0 9L4.16718 7.16718L6 3Z" fill="#9D0208"/>
<path d="M6 3L7.83282 7.16718L12 9L7.83282 10.8328L6 15L4.16718 10.8328L0 9L4.16718 7.16718L6 3Z" fill="#D00000"/>
<path d="M13 0L13.9164 2.08359L16 3L13.9164 3.91641L13 6L12.0836 3.91641L10 3L12.0836 2.08359L13 0Z" fill="#F5772E"/>
<path d="M13 0L13.9164 2.08359L16 3L13.9164 3.91641L13 6L12.0836 3.91641L10 3L12.0836 2.08359L13 0Z" fill="#9D0208"/>
<path d="M13 0L13.9164 2.08359L16 3L13.9164 3.91641L13 6L12.0836 3.91641L10 3L12.0836 2.08359L13 0Z" fill="#D00000"/>
<path d="M14 12L14.9164 14.0836L17 15L14.9164 15.9164L14 18L13.0836 15.9164L11 15L13.0836 14.0836L14 12Z" fill="#F5772E"/>
<path d="M14 12L14.9164 14.0836L17 15L14.9164 15.9164L14 18L13.0836 15.9164L11 15L13.0836 14.0836L14 12Z" fill="#9D0208"/>
<path d="M14 12L14.9164 14.0836L17 15L14.9164 15.9164L14 18L13.0836 15.9164L11 15L13.0836 14.0836L14 12Z" fill="#D00000"/>
</svg>
