<svg width="53" height="50" viewBox="0 0 53 50" fill="none" xmlns="http://www.w3.org/2000/svg">
<rect width="52.4615" height="50" rx="10" fill="#EEEEEE"/>
<path d="M32.7307 20.75C32.7307 18.6789 31.0518 17 28.9807 17C26.9096 17 25.2307 18.6789 25.2307 20.75C25.2307 22.8211 26.9096 24.5 28.9807 24.5C31.0518 24.5 32.7307 22.8211 32.7307 20.75Z" fill="#181C2E"/>
<path d="M25.6313 17.3819C24.7662 18.2422 24.2307 19.4336 24.2307 20.75C24.2307 22.0664 24.7662 23.2578 25.6313 24.1181C25.1333 24.3627 24.573 24.5 23.9807 24.5C21.9096 24.5 20.2307 22.8211 20.2307 20.75C20.2307 18.6789 21.9096 17 23.9807 17C24.573 17 25.1333 17.1373 25.6313 17.3819Z" fill="#181C2E"/>
<path d="M35.7307 29.75C35.7307 27.6789 34.0518 26 31.9807 26H25.9807C23.9096 26 22.2307 27.6789 22.2307 29.75C22.2307 31.8211 23.9096 33.5 25.9807 33.5H31.9807C34.0518 33.5 35.7307 31.8211 35.7307 29.75Z" fill="#181C2E"/>
<path d="M21.2307 29.75C21.2307 30.7749 21.5553 31.7239 22.1073 32.5H20.9807C18.9096 32.5 17.2307 30.8211 17.2307 28.75C17.2307 26.6789 18.9096 25 20.9807 25H25.9807C23.3574 25 21.2307 27.1266 21.2307 29.75Z" fill="#181C2E"/>
</svg>
